<?xml version="1.0" standalone="no"?>
<!DOCTYPE svg PUBLIC "-//W3C//DTD SVG 20010904//EN"
 "http://www.w3.org/TR/2001/REC-SVG-20010904/DTD/svg10.dtd">
<svg version="1.0" xmlns="http://www.w3.org/2000/svg"
 width="1099.000000pt" height="1200.000000pt" viewBox="0 0 1099.000000 1200.000000"
 preserveAspectRatio="xMidYMid meet">

<g transform="translate(0.000000,1200.000000) scale(0.100000,-0.100000)"
fill="#000000" stroke="none">
<path d="M4720 11973 c-324 -14 -758 -99 -998 -196 -201 -81 -314 -156 -439
-294 -43 -46 -107 -107 -143 -133 -224 -166 -283 -334 -312 -893 -24 -460 26
-887 148 -1256 44 -132 44 -134 30 -180 -57 -179 -46 -384 29 -532 58 -114
175 -203 303 -230 68 -14 159 -7 203 15 18 9 33 15 34 14 0 -2 13 -34 29 -73
76 -192 246 -411 456 -587 l55 -46 -95 5 c-170 9 -263 -21 -355 -118 -53 -55
-217 -296 -236 -346 -13 -34 12 -73 46 -73 40 0 39 -19 -2 -36 -21 -9 -111
-49 -201 -90 -90 -41 -297 -124 -460 -184 -542 -202 -616 -231 -770 -305 -558
-269 -832 -573 -1077 -1194 -233 -592 -623 -1985 -699 -2502 -9 -59 -25 -128
-37 -154 -18 -41 -20 -53 -10 -86 21 -69 102 -119 195 -119 l39 0 -6 -57 c-4
-32 -10 -179 -13 -328 -10 -401 12 -627 82 -835 121 -363 381 -637 649 -685
144 -26 340 -13 493 31 30 9 55 14 57 12 2 -1 -4 -42 -12 -89 -18 -98 -12
-154 18 -170 16 -8 26 -7 45 6 37 24 43 52 37 172 l-6 109 114 44 c150 58 617
293 1604 810 640 335 821 426 863 432 70 11 130 42 150 79 13 21 53 48 151 99
l134 70 106 -42 c206 -80 318 -126 501 -205 308 -134 493 -187 685 -199 85 -6
102 -4 114 9 10 13 17 14 34 5 32 -17 363 3 628 37 l45 6 -13 -93 c-22 -158
-33 -497 -23 -698 15 -302 66 -656 103 -725 28 -51 67 -59 93 -20 17 26 16 95
-2 177 l-6 28 60 0 c70 0 208 38 300 82 87 41 283 190 366 278 74 79 119 161
135 247 20 104 34 410 28 623 l-6 216 512 58 c282 32 693 78 914 102 454 49
572 66 659 95 141 46 230 149 283 324 11 39 39 176 61 305 135 788 199 1174
275 1650 47 294 106 662 132 817 59 358 74 327 -157 318 -925 -36 -1715 -113
-2614 -256 -136 -21 -250 -39 -251 -39 -12 0 -115 238 -165 380 -121 342 -179
454 -303 587 -160 168 -280 235 -732 403 -71 27 -165 65 -209 85 -76 34 -95
38 -82 16 15 -24 214 -146 386 -236 492 -258 600 -379 793 -890 36 -93 83
-215 106 -269 23 -54 40 -101 38 -102 -2 -2 -77 -17 -168 -34 -255 -47 -314
-68 -390 -137 -61 -55 -98 -141 -197 -453 -226 -712 -385 -1322 -518 -1974
-19 -93 -34 -171 -34 -174 0 -4 -28 -1 -152 14 -42 5 -62 3 -74 -7 -13 -11
-19 -8 -42 21 -32 41 -127 103 -201 131 -236 89 -510 113 -465 41 12 -18 26
-21 199 -47 114 -17 243 -53 308 -87 22 -11 59 -38 84 -61 72 -66 93 -137 52
-178 -35 -35 -100 -21 -268 60 -208 100 -304 118 -404 76 -18 -7 -67 -34 -109
-58 -130 -77 -298 -127 -311 -93 -4 9 -15 16 -25 16 -10 0 -127 -56 -261 -125
-190 -98 -248 -124 -268 -119 -75 19 -151 149 -204 349 -27 102 -32 139 -33
245 -1 101 2 131 15 151 15 22 47 32 270 88 264 66 437 117 453 132 5 4 10 18
11 31 1 14 10 25 26 29 42 13 649 199 797 245 100 31 162 44 202 44 54 0 61
-3 91 -35 19 -19 41 -35 51 -35 10 0 49 -33 86 -72 130 -140 177 -173 203
-142 23 28 -1 63 -108 153 -60 50 -131 114 -159 141 -52 52 -105 79 -160 80
-54 0 -219 -47 -489 -139 -302 -104 -402 -142 -540 -203 -55 -25 -116 -48
-136 -52 -29 -5 -305 -80 -414 -112 -19 -6 -20 -6 -1 8 25 20 14 35 -35 48
-74 20 -138 -6 -214 -84 l-50 -53 -295 -77 c-373 -98 -954 -255 -1264 -341
-131 -36 -240 -64 -241 -63 -2 2 6 46 16 98 26 128 65 425 78 590 39 492 32
841 -19 920 -8 13 -11 12 -24 -5 -16 -21 -56 -136 -56 -161 0 -26 -15 -14 -38
29 -25 46 -118 157 -133 157 -15 0 -11 -16 35 -123 24 -56 56 -140 71 -187
l27 -85 -36 -300 c-47 -394 -67 -624 -72 -820 -4 -156 -4 -160 -26 -167 -37
-10 -48 -9 -42 6 10 25 -25 75 -63 91 -224 94 -699 214 -1038 264 -77 11 -203
32 -280 46 -77 14 -157 28 -178 31 -30 4 -37 9 -33 21 4 8 25 92 47 187 214
892 360 1420 544 1966 168 496 272 713 454 947 166 212 366 365 676 514 128
61 272 121 730 298 217 85 503 226 598 296 43 31 80 56 81 54 2 -2 54 -71 116
-154 147 -197 257 -375 348 -565 241 -503 285 -578 362 -610 28 -11 34 -11 57
6 14 11 31 33 37 49 16 45 180 269 389 534 94 118 137 165 141 155 14 -35 4
-117 -25 -220 -17 -60 -34 -141 -36 -180 -9 -125 19 -178 164 -305 198 -173
287 -320 318 -526 14 -98 31 -131 59 -120 43 17 51 158 16 272 -30 95 -90 208
-151 284 -28 35 -46 60 -39 56 25 -16 58 25 94 119 45 114 97 188 199 279 41
37 96 98 121 136 53 79 123 225 162 338 15 43 38 87 50 98 13 11 24 29 25 40
4 25 -10 96 -21 110 -9 12 -41 120 -70 235 -11 47 -23 93 -26 103 -3 9 0 17 7
17 27 0 201 77 284 125 248 147 449 373 589 665 186 387 233 789 155 1310 -36
238 -160 798 -269 1216 -22 82 -40 157 -40 165 0 7 17 24 38 35 57 33 130 101
157 147 48 82 42 176 -15 241 -17 18 -30 37 -30 41 0 3 20 40 46 81 63 105
114 225 107 253 -3 12 -18 28 -32 36 -30 15 -708 266 -949 351 -313 110 -559
165 -827 184 -133 9 -186 10 -335 3z m520 -148 c142 -22 316 -64 486 -119 148
-48 972 -351 983 -361 10 -11 -51 -116 -121 -210 -89 -118 -88 -152 2 -179 43
-13 45 -15 48 -56 3 -40 0 -46 -47 -91 -28 -27 -57 -49 -64 -49 -8 0 -20 29
-31 78 -30 130 -54 172 -117 207 -46 25 -64 29 -124 28 -89 -1 -164 -29 -264
-99 -202 -141 -256 -160 -365 -132 -35 9 -128 47 -206 83 -303 142 -513 193
-825 202 -461 14 -757 -107 -959 -391 -112 -156 -142 -309 -92 -461 25 -73 84
-179 138 -247 l21 -27 -48 -63 c-62 -83 -92 -144 -116 -236 -25 -99 -25 -238
1 -362 11 -52 20 -96 20 -98 0 -2 -15 8 -33 22 -48 37 -113 57 -185 58 -78 0
-171 -42 -226 -102 -22 -25 -38 -36 -40 -28 -10 29 -57 313 -76 453 -53 395
-54 779 -4 1130 35 243 66 321 167 415 39 36 127 122 196 191 135 136 179 169
299 229 214 106 582 194 977 234 95 9 505 -3 605 -19z m-425 -851 c188 -27
303 -65 616 -203 259 -114 362 -106 581 51 135 96 178 117 238 118 l45 0 39
-137 c181 -638 342 -1319 392 -1658 26 -172 26 -551 0 -690 -93 -508 -379
-927 -761 -1115 -186 -91 -329 -124 -540 -124 -216 1 -342 32 -563 141 -107
52 -136 62 -148 53 -26 -22 -15 -54 34 -101 130 -125 285 -200 481 -234 102
-18 317 -19 424 -1 89 14 81 23 92 -93 9 -87 59 -285 84 -326 l19 -34 -74
-141 c-107 -205 -134 -241 -277 -380 -142 -137 -196 -214 -222 -316 -11 -45
-13 -68 -5 -88 16 -44 13 -43 -42 10 -29 28 -74 68 -100 88 -56 45 -88 106
-88 168 0 25 14 92 31 149 92 313 27 451 -307 655 -237 145 -411 272 -574 421
l-66 59 43 54 c24 30 62 92 85 138 23 45 47 82 54 82 17 0 64 58 64 80 0 33
-34 63 -70 62 -44 -1 -58 7 -167 95 -166 134 -280 268 -428 501 -49 78 -58
101 -57 133 2 27 -3 44 -18 59 -25 25 -42 25 -115 0 -191 -66 -334 38 -367
268 -22 150 20 325 97 406 87 90 239 88 355 -4 43 -34 52 -36 70 -15 10 11 7
50 -10 187 -35 272 -19 403 65 523 20 27 52 73 71 100 50 69 45 111 -25 211
-29 41 -66 104 -84 141 -72 152 -24 322 136 483 206 209 554 287 992 224z
m-720 -3446 c-2 -13 -14 -65 -26 -117 l-21 -93 -99 98 c-77 76 -95 100 -84
107 14 8 133 23 203 26 29 1 32 -2 27 -21z m-215 -146 c99 -141 305 -348 472
-472 69 -52 206 -144 304 -205 119 -74 200 -132 246 -176 l68 -66 -98 -99
c-153 -156 -444 -506 -475 -571 -5 -13 -14 -23 -18 -23 -13 0 -90 122 -134
215 -24 50 -77 160 -117 245 -125 262 -239 429 -464 680 -72 80 -133 151 -137
157 -7 11 113 241 166 318 29 43 89 105 102 105 5 0 44 -49 85 -108z m6836
-2039 c-29 -142 -264 -1480 -331 -1883 -149 -895 -171 -1003 -219 -1098 -60
-116 -141 -159 -336 -177 -143 -13 -2051 -227 -2845 -320 -369 -43 -577 -72
-681 -95 -26 -6 -48 -9 -51 -7 -2 2 25 121 61 263 35 142 92 383 126 534 125
556 221 933 375 1466 98 338 219 728 245 790 26 60 82 118 139 142 84 37 930
180 1481 251 616 79 1404 143 1973 159 l69 2 -6 -27z m-6719 -2780 c-2 -264
74 -529 183 -641 23 -24 40 -45 38 -47 -2 -2 -370 -194 -818 -425 -448 -232
-925 -480 -1060 -550 -478 -251 -709 -333 -983 -346 -235 -12 -382 54 -540
241 -255 303 -327 626 -327 1470 l0 304 91 -25 c50 -14 170 -41 267 -60 188
-37 351 -76 522 -125 113 -33 469 -148 484 -157 5 -3 -22 -14 -60 -24 -111
-30 -311 -97 -380 -129 -78 -35 -188 -104 -243 -154 -63 -58 -48 -60 25 -4
147 111 242 144 829 289 563 138 876 219 1470 379 264 71 485 130 491 130 8 1
11 -39 11 -126z m-3533 9 c6 -10 -10 -151 -18 -160 -11 -10 -114 48 -136 76
-27 34 -25 51 8 62 15 6 34 14 42 19 18 12 97 14 104 3z m5723 -244 c73 -26
93 -37 93 -52 0 -22 -60 -499 -63 -502 -1 -1 -51 2 -112 7 -184 14 -305 47
-640 172 -260 97 -339 122 -465 150 l-104 24 70 6 c105 10 178 32 302 93 178
87 219 84 450 -29 153 -76 230 -96 293 -76 23 8 51 26 62 41 27 36 33 114 14
161 -20 46 -18 46 100 5z m1703 -533 c0 -3 -22 -94 -49 -203 -52 -211 -60
-252 -91 -473 -13 -90 -28 -160 -42 -188 -29 -63 -213 -243 -315 -309 -143
-94 -270 -124 -325 -79 -25 20 -28 32 -42 157 -27 235 -37 457 -34 727 2 144
5 264 8 267 3 2 201 27 440 54 239 27 438 50 443 51 4 0 7 -1 7 -4z"/>
<path d="M6051 9983 c-33 -28 -37 -75 -9 -107 20 -23 41 -30 148 -52 113 -23
176 -44 338 -115 146 -64 44 115 -113 198 -72 38 -253 93 -305 93 -21 0 -47
-8 -59 -17z"/>
<path d="M5155 9959 c-129 -16 -264 -77 -372 -168 -88 -75 -161 -181 -123
-181 5 0 41 21 80 46 147 95 252 129 433 142 91 7 121 13 137 27 30 27 26 75
-7 107 -34 31 -69 37 -148 27z"/>
<path d="M5035 9560 c-47 -19 -67 -55 -77 -142 -18 -161 9 -238 86 -238 44 0
69 30 95 114 19 63 24 97 22 174 -2 73 -63 118 -126 92z"/>
<path d="M6263 9542 c-40 -32 -73 -93 -73 -134 0 -61 19 -123 49 -159 38 -45
91 -47 131 -3 33 37 55 132 48 206 -5 42 -11 57 -37 80 -36 33 -84 37 -118 10z"/>
<path d="M5894 9053 c-5 -18 -3 -28 6 -31 26 -9 102 -87 121 -124 48 -95 -3
-197 -101 -198 -41 0 -139 44 -194 89 -47 37 -79 39 -111 6 -55 -54 -22 -102
113 -168 108 -52 192 -61 270 -27 132 57 190 226 123 358 -33 65 -122 122
-190 122 -25 0 -32 -5 -37 -27z"/>
<path d="M3310 8925 c-64 -18 -100 -40 -100 -60 0 -23 18 -28 109 -30 99 -2
152 -20 250 -83 36 -24 76 -42 92 -42 39 0 73 44 65 85 -8 43 -73 100 -137
120 -76 24 -211 29 -279 10z"/>
<path d="M6018 8226 c-140 -132 -283 -129 -414 11 -30 32 -48 43 -71 43 -65 0
-109 -70 -79 -127 23 -46 102 -112 174 -146 61 -29 75 -32 167 -32 90 0 106 3
158 29 32 15 82 52 112 80 43 42 57 65 71 111 19 66 12 89 -27 92 -17 2 -42
-14 -91 -61z"/>
<path d="M8872 4098 c-7 -7 -12 -37 -12 -67 0 -98 -42 -163 -152 -241 -27 -18
-55 -44 -63 -56 -19 -29 -19 -74 -1 -99 13 -18 10 -22 -34 -52 -119 -80 -128
-172 -26 -259 66 -56 155 -79 311 -78 191 1 302 34 392 117 56 51 73 84 73
139 0 67 -45 121 -122 149 -30 10 -38 18 -38 39 0 43 -34 86 -84 105 -32 12
-46 23 -46 36 0 36 -38 119 -84 183 -70 99 -87 111 -114 84z m106 -322 c8 -58
29 -76 65 -57 33 18 58 11 76 -20 21 -38 6 -77 -47 -127 -38 -35 -44 -46 -36
-60 21 -34 62 -27 106 18 37 37 46 41 75 35 39 -7 73 -37 73 -62 0 -32 -37
-79 -86 -112 -82 -54 -139 -66 -314 -66 -142 0 -160 2 -208 24 -107 48 -119
103 -41 186 45 47 54 53 82 48 18 -2 45 0 61 6 l29 11 -54 28 c-77 39 -76 57
4 109 71 45 139 122 158 180 l12 38 19 -65 c10 -36 22 -87 26 -114z"/>
<path d="M5900 7001 c0 -12 95 -99 156 -144 81 -59 89 -85 74 -239 -7 -70 -16
-128 -20 -128 -4 0 -29 -34 -56 -76 -26 -42 -72 -104 -102 -138 -111 -123
-135 -173 -150 -306 l-7 -62 -59 45 c-64 50 -104 64 -135 47 -36 -19 -188
-250 -165 -250 4 0 43 38 86 85 44 47 88 85 97 85 10 0 28 -12 42 -26 58 -62
178 -154 202 -154 42 0 48 19 50 162 2 123 4 137 29 188 15 30 61 92 101 138
41 46 84 103 96 128 15 29 29 44 41 44 38 0 51 42 62 192 13 179 6 214 -61
278 -72 70 -281 168 -281 131z"/>
<path d="M4740 5872 c0 -28 115 -260 138 -280 15 -12 63 -34 107 -47 64 -20
86 -32 112 -62 32 -37 33 -37 48 -19 8 11 15 28 15 39 0 30 -61 84 -111 96
-132 34 -169 64 -242 196 -42 74 -67 103 -67 77z"/>
<path d="M2420 5779 c0 -20 51 -347 85 -544 19 -110 64 -393 100 -630 69 -450
74 -467 116 -444 17 8 19 22 19 112 0 290 -60 691 -160 1082 -50 194 -80 290
-120 383 -21 47 -40 68 -40 41z"/>
<path d="M3060 5568 c0 -18 7 -204 15 -413 8 -209 15 -424 16 -478 3 -99 15
-137 44 -137 27 0 43 31 59 117 49 265 21 567 -76 842 -35 100 -58 127 -58 69z"/>
<path d="M5678 3051 c-268 -44 -468 -100 -468 -130 0 -16 18 -14 195 18 293
54 525 73 607 51 21 -6 87 -44 147 -84 117 -79 176 -105 193 -88 27 27 -117
154 -249 219 -101 50 -186 52 -425 14z"/>
<path d="M5910 2793 c-129 -19 -555 -112 -547 -120 6 -6 287 24 402 42 118 20
198 19 238 -1 18 -9 64 -47 102 -84 75 -72 130 -98 180 -86 40 10 31 48 -14
57 -42 9 -84 39 -138 100 -61 68 -146 103 -223 92z"/>
<path d="M4686 1704 c-145 -165 -646 -949 -646 -1010 0 -27 33 -49 55 -37 26
15 165 195 260 338 203 306 437 766 389 765 -5 0 -31 -26 -58 -56z"/>
</g>
</svg>
